<svg width="64" height="64" viewBox="0 0 64 64" fill="none" xmlns="http://www.w3.org/2000/svg">
<path d="M0 0H64V64H0V0Z" fill="#05696C"/>
<path d="M22.4 12.8C19.7525 12.8 17.6 14.9525 17.6 17.6V47.6H17C16.0025 47.6 15.2 48.4025 15.2 49.4C15.2 50.3975 16.0025 51.2 17 51.2H30.2375L29.69 50.2175C29.225 49.3925 29.0075 48.4925 29.0075 47.6H21.2V33.8H30.2V36.8L31.385 34.685L31.6775 34.2125C32.915 32.45 35.06 31.6325 37.1 32.0225C37.3325 31.3475 37.6925 30.7325 38.1575 30.2H33.8V16.4H41.6C42.26 16.4 42.8 16.94 42.8 17.6V28.37H45.8075C46.01 28.37 46.205 28.3775 46.4 28.4V17.6C46.4 14.9525 44.2475 12.8 41.6 12.8H22.4ZM21.2 17.6C21.2 16.94 21.74 16.4 22.4 16.4H30.2V30.2H21.2V17.6ZM42.215 32C41.2175 32 40.415 32.8025 40.415 33.8V34.2425C40.415 35.6675 38.6 36.7175 37.3625 36.005L37.0025 35.795C36.1325 35.2925 35.0225 35.6 34.535 36.4775L32.8475 39.5C32.375 40.34 32.6525 41.3975 33.47 41.9075L33.8075 42.1175C35.03 42.875 35.0225 45.125 33.8075 45.8825L33.4775 46.085C32.66 46.595 32.3825 47.6525 32.855 48.4925L34.5425 51.5225C35.03 52.4 36.1475 52.7075 37.0175 52.205L37.3775 51.995C38.615 51.2825 40.43 52.3325 40.43 53.7575V54.2C40.43 55.1975 41.2325 56 42.23 56H45.83C46.8275 56 47.63 55.1975 47.63 54.2V53.7425C47.63 52.325 49.4375 51.2825 50.6675 51.9875L51.035 52.205C51.905 52.7075 53.0225 52.4 53.51 51.5225L55.19 48.4925C55.655 47.6525 55.385 46.595 54.5675 46.0925L54.2225 45.875C53.0075 45.1175 53.0075 42.8825 54.2225 42.1175L54.575 41.9C55.385 41.39 55.655 40.34 55.19 39.5L53.51 36.485C53.0225 35.6075 51.905 35.3 51.035 35.8025L50.66 36.02C49.43 36.7325 47.6225 35.6825 47.6225 34.265V33.8075C47.6225 32.81 46.82 32.0075 45.8225 32.0075H42.2225L42.215 32ZM40.1075 44.015C40.1075 41.8625 41.855 40.115 44.0075 40.115C46.16 40.115 47.9075 41.8625 47.9075 44.015C47.9075 46.1675 46.16 47.915 44.0075 47.915C41.855 47.915 40.1075 46.1675 40.1075 44.015ZM30.2 43.7225V44.2025C30.2675 44.12 30.335 44.045 30.4025 43.9625C30.335 43.8875 30.2675 43.805 30.2 43.7225Z" fill="white"/>
</svg>
