<svg width="32" height="32" viewBox="0 0 32 32" fill="none" xmlns="http://www.w3.org/2000/svg">
<g id="typo3-menu-controls">
<path id="Path" d="M0 0H32V32H0V0Z" fill="#004D70"/>
<g id="filter-list-regular 1">
<path id="Vector" d="M6.77031 7.75C5.79492 7.75 5 8.54492 5 9.52031C5 9.96719 5.16758 10.3969 5.47266 10.7277L9.46875 15.0289V20.443C9.46875 21.0187 9.75664 21.5602 10.2422 21.8781L13.4863 24.018C13.7141 24.1684 13.9848 24.25 14.2598 24.25C15.0332 24.25 15.6605 23.6227 15.6605 22.8492V15.0289L19.6566 10.7277C19.9617 10.4012 20.1293 9.97148 20.1293 9.52031C20.125 8.54492 19.3301 7.75 18.3547 7.75H6.77031ZM11.2563 13.9246L7.44062 9.8125H17.6887L13.873 13.9246C13.6969 14.1137 13.598 14.3672 13.598 14.625V21.6203L11.5355 20.2582L11.5312 14.625C11.5312 14.3629 11.4324 14.1137 11.2563 13.9246ZM19.7812 21.8438C19.2098 21.8438 18.75 22.3035 18.75 22.875C18.75 23.4465 19.2098 23.9062 19.7812 23.9062H25.9688C26.5402 23.9062 27 23.4465 27 22.875C27 22.3035 26.5402 21.8438 25.9688 21.8438H19.7812ZM18.75 16C18.75 16.5715 19.2098 17.0312 19.7812 17.0312H25.9688C26.5402 17.0312 27 16.5715 27 16C27 15.4285 26.5402 14.9688 25.9688 14.9688H19.7812C19.2098 14.9688 18.75 15.4285 18.75 16ZM22.5312 8.09375C21.9598 8.09375 21.5 8.55352 21.5 9.125C21.5 9.69648 21.9598 10.1562 22.5312 10.1562H25.9688C26.5402 10.1562 27 9.69648 27 9.125C27 8.55352 26.5402 8.09375 25.9688 8.09375H22.5312Z" fill="white"/>
</g>
</g>
</svg>
